<?xml version="1.0" ?><svg enable-background="new 0 0 500 500" version="1.1" viewBox="0 0 500 500" xml:space="preserve" xmlns="http://www.w3.org/2000/svg" xmlns:xlink="http://www.w3.org/1999/xlink"><g id="Layer_2"/><g id="Layer_1"><g><path d="M234,51.433C234,44.014,227.919,38,220.5,38S207,44.014,207,51.433V67h27V51.433z" fill="#474747"/><path d="M490.269,233.253l-16.697-38.773l-0.758-22.431c-0.124-3.685-2.263-7.004-5.567-8.641l-9.101-4.508    l-11.739-50.806c-0.786-3.403-5.785-2.879-5.848,0.614l-0.752,41.981l-37.627-35.869c-2.47-2.355-6.307,0.646-4.617,3.611    l20.194,35.431l-7.53,4.901l-22.403-12.441c-2.988-1.659-5.946,2.222-3.554,4.663L398.986,166l-7.099,6.506l-19.068-3.667    c-3.032-0.583-4.822,3.281-2.416,5.217l12.322,9.914l-22.357,116.636c-1.05,5.027-3.072,9.703-5.869,13.825    c-6.774-9.437-17.831-15.603-30.308-15.603c-19.042,0-34.787,14.35-37.013,32.802c-6.365-11.482-18.366-19.275-32.399-19.275    c-7.792,0-14.78,2.406-20.78,6.508V286h-27v33.506c-7-4.492-13.908-7.151-22.097-7.151c-14.348,0-26.908,8.149-33.142,20.058    c-1.867-18.829-17.839-33.586-37.151-33.586c-12.253,0-23.165,5.942-29.967,15.094c-4.064-4.008-7.261-8.473-9.891-13.399    c-9.175-17.179-1.332-35.662,1.476-41.064c2.914-4.874,5.878-9.77,8.692-14.826c10.216-18.354,20.372-38.983,10.964-59.908    c-0.625-1.39-1.336-2.7-2.085-3.974c-7.28-15.335-23.037-25.864-41.218-25.521c-24.444,0.461-43.792,20.198-43.791,44.646    c0,10.471,3.613,20.091,9.649,27.704c0.081,0.067,0.171,0.118,0.249,0.192c13.895,13.139,35.494,12.101,49.172-2.363    c5.03-5.32,7.687-12.28,7.482-19.599c-0.205-7.319-3.248-14.119-8.568-19.149c-4.069-3.848-9.395-5.881-14.993-5.724    c-5.599,0.157-10.801,2.485-14.65,6.554c-6.275,6.637-6.484,16.667-0.466,22.358c4.586,4.337,12.252,6.191,18.023,1.344    c1.684-1.414,1.619-4.344,0.594-6.247c-1.004-1.866-2.073-1.548-2.529-1.411c-2.543,0.754-5.212-0.69-5.968-3.229    c-0.756-2.539,0.689-5.211,3.228-5.968c5.47-1.632,10.857,0.747,13.717,6.058c2.828,5.252,2.783,13.396-2.873,18.145    c-8.89,7.464-21.836,6.741-30.785-1.72c-9.862-9.327-9.824-25.441,0.087-35.922c5.609-5.932,13.193-9.325,21.353-9.554    c8.154-0.221,15.922,2.735,21.854,8.344c7.182,6.791,11.29,15.972,11.567,25.853S81.622,224.817,74.83,232    c-6.433,6.804-14.854,12.13-24.583,16.472c-17.531,26.254-31.163,52.704-32.012,84.466c-0.992,37.238,25.991,68.838,58.61,83.586    c32.448,12.705,93.778,17.144,157.673,17.144c63.895,0,106.486-1.787,141.943-11.895c41.085-11.712,66.153-36.989,66.153-76.512    c0-39.523-31.545-106.099-31.545-138.236c0-4.906,5.018-6.569,6.848-1.681l3.326,8.542c1.439,3.696,4.535,6.498,8.356,7.564    l9.472,2.675L461.697,253h7.856c0.984,0,1.358-1.319,0.527-1.846l-3.571-2.282l0.882-6.058l-5.725-1.271l-4.393-7.669    l-4.347-17.265l-0.18-7.276c-0.043-1.746,2.325-2.318,3.084-0.745l3.863,8.019l8.717,8.719l-1.779,6.508l5.913,1.183l7.575,7.9    l-0.551,8.623c-0.093,1.457,1.735,2.18,2.664,1.054l7.631-9.255C491.244,238.853,491.395,235.866,490.269,233.253z     M114.567,359.021c-12.647,0-22.901-10.253-22.901-22.901c0-12.648,10.254-22.901,22.901-22.901c12.648,0,22.9,10.253,22.9,22.901    C137.467,348.769,127.215,359.021,114.567,359.021z M184.73,372.549c-12.647,0-22.901-10.253-22.901-22.9    c0-12.647,10.254-22.901,22.901-22.901c12.648,0,22.9,10.254,22.9,22.901C207.631,362.296,197.378,372.549,184.73,372.549z     M254.54,372.549c-12.647,0-22.901-10.253-22.901-22.901c0-12.648,10.254-22.901,22.901-22.901    c12.649,0,22.901,10.254,22.901,22.901C277.441,362.296,267.189,372.549,254.54,372.549z M324.191,359.021    c-12.647,0-22.9-10.253-22.9-22.9c0-12.648,10.254-22.901,22.9-22.901c12.648,0,22.901,10.253,22.901,22.901    C347.092,348.769,336.839,359.021,324.191,359.021z" fill="#474747"/><path d="M192.782,276h54.045l5.845-16.425c19.385-53.731,19.385-113.278,0-167.008L246.827,76h-54.045l2.32,6.684    c21.659,60.031,21.659,126.503,0,186.533L192.782,276z" fill="#474747"/><path d="M277.429,276h38.19c6.823,0,12.005-4.157,14.567-10.481l4.699-11.606    c20.44-49.905,20.44-105.738,0-155.643l-4.683-11.658C327.629,80.311,322.459,76,315.653,76h-38.224l2.32,6.684    c21.66,60.03,21.66,126.503,0,186.533L277.429,276z" fill="#474747"/><path d="M107.786,264.614c-2.201,5.433,1.797,11.386,7.659,11.386h46.735l5.846-16.426    c19.385-53.73,19.385-113.277,0-167.008L162.18,76h-46.699c-5.872,0-9.871,6.143-7.65,11.579l4.287,10.591    c20.44,49.905,20.44,105.79,0,155.696L107.786,264.614z" fill="#474747"/></g></g></svg>