<?xml version="1.0" encoding="UTF-8" standalone="no"?>
<svg
   xmlns:dc="http://purl.org/dc/elements/1.1/"
   xmlns:cc="http://creativecommons.org/ns#"
   xmlns:rdf="http://www.w3.org/1999/02/22-rdf-syntax-ns#"
   xmlns:svg="http://www.w3.org/2000/svg"
   xmlns="http://www.w3.org/2000/svg"
   xmlns:sodipodi="http://sodipodi.sourceforge.net/DTD/sodipodi-0.dtd"
   xmlns:inkscape="http://www.inkscape.org/namespaces/inkscape"
   enable-background="new 0 0 500 500"
   version="1.1"
   viewBox="0 0 500 500"
   xml:space="preserve"
   id="svg4575"
   sodipodi:docname="longship-white.svg"
   inkscape:version="0.92.1 r15371"><metadata
     id="metadata4581"><rdf:RDF><cc:Work
         rdf:about=""><dc:format>image/svg+xml</dc:format><dc:type
           rdf:resource="http://purl.org/dc/dcmitype/StillImage" /><dc:title></dc:title></cc:Work></rdf:RDF></metadata><defs
     id="defs4579" /><sodipodi:namedview
     pagecolor="#ffffff"
     bordercolor="#666666"
     borderopacity="1"
     objecttolerance="10"
     gridtolerance="10"
     guidetolerance="10"
     inkscape:pageopacity="0"
     inkscape:pageshadow="2"
     inkscape:window-width="3838"
     inkscape:window-height="2082"
     id="namedview4577"
     showgrid="false"
     inkscape:zoom="3.698"
     inkscape:cx="198.35046"
     inkscape:cy="250"
     inkscape:window-x="0"
     inkscape:window-y="38"
     inkscape:window-maximized="1"
     inkscape:current-layer="Layer_1" /><g
     id="Layer_2" /><g
     id="Layer_1"><g
       id="g4572"><path
         d="M 234,51.433 C 234,44.014 227.919,38 220.5,38 213.081,38 207,44.014 207,51.433 V 67 h 27 z"
         id="path4562"
         inkscape:connector-curvature="0"
         style="fill:#ffffff;fill-opacity:1" /><path
         d="m 490.269,233.253 -16.697,-38.773 -0.758,-22.431 c -0.124,-3.685 -2.263,-7.004 -5.567,-8.641 l -9.101,-4.508 -11.739,-50.806 c -0.786,-3.403 -5.785,-2.879 -5.848,0.614 l -0.752,41.981 -37.627,-35.869 c -2.47,-2.355 -6.307,0.646 -4.617,3.611 l 20.194,35.431 -7.53,4.901 -22.403,-12.441 c -2.988,-1.659 -5.946,2.222 -3.554,4.663 l 14.716,15.015 -7.099,6.506 -19.068,-3.667 c -3.032,-0.583 -4.822,3.281 -2.416,5.217 l 12.322,9.914 -22.357,116.636 c -1.05,5.027 -3.072,9.703 -5.869,13.825 -6.774,-9.437 -17.831,-15.603 -30.308,-15.603 -19.042,0 -34.787,14.35 -37.013,32.802 -6.365,-11.482 -18.366,-19.275 -32.399,-19.275 -7.792,0 -14.78,2.406 -20.78,6.508 V 286 h -27 v 33.506 c -7,-4.492 -13.908,-7.151 -22.097,-7.151 -14.348,0 -26.908,8.149 -33.142,20.058 -1.867,-18.829 -17.839,-33.586 -37.151,-33.586 -12.253,0 -23.165,5.942 -29.967,15.094 -4.064,-4.008 -7.261,-8.473 -9.891,-13.399 -9.175,-17.179 -1.332,-35.662 1.476,-41.064 2.914,-4.874 5.878,-9.77 8.692,-14.826 10.216,-18.354 20.372,-38.983 10.964,-59.908 -0.625,-1.39 -1.336,-2.7 -2.085,-3.974 -7.28,-15.335 -23.037,-25.864 -41.218,-25.521 -24.444,0.461 -43.792,20.198 -43.791,44.646 0,10.471 3.613,20.091 9.649,27.704 0.081,0.067 0.171,0.118 0.249,0.192 13.895,13.139 35.494,12.101 49.172,-2.363 5.03,-5.32 7.687,-12.28 7.482,-19.599 -0.205,-7.319 -3.248,-14.119 -8.568,-19.149 -4.069,-3.848 -9.395,-5.881 -14.993,-5.724 -5.599,0.157 -10.801,2.485 -14.65,6.554 -6.275,6.637 -6.484,16.667 -0.466,22.358 4.586,4.337 12.252,6.191 18.023,1.344 1.684,-1.414 1.619,-4.344 0.594,-6.247 -1.004,-1.866 -2.073,-1.548 -2.529,-1.411 -2.543,0.754 -5.212,-0.69 -5.968,-3.229 -0.756,-2.539 0.689,-5.211 3.228,-5.968 5.47,-1.632 10.857,0.747 13.717,6.058 2.828,5.252 2.783,13.396 -2.873,18.145 -8.89,7.464 -21.836,6.741 -30.785,-1.72 -9.862,-9.327 -9.824,-25.441 0.087,-35.922 5.609,-5.932 13.193,-9.325 21.353,-9.554 8.154,-0.221 15.922,2.735 21.854,8.344 7.182,6.791 11.29,15.972 11.567,25.853 0.277,9.881 -3.31,19.276 -10.102,26.459 -6.433,6.804 -14.854,12.13 -24.583,16.472 -17.531,26.254 -31.163,52.704 -32.012,84.466 -0.992,37.238 25.991,68.838 58.61,83.586 32.448,12.705 93.778,17.144 157.673,17.144 63.895,0 106.486,-1.787 141.943,-11.895 41.085,-11.712 66.153,-36.989 66.153,-76.512 0,-39.523 -31.545,-106.099 -31.545,-138.236 0,-4.906 5.018,-6.569 6.848,-1.681 l 3.326,8.542 c 1.439,3.696 4.535,6.498 8.356,7.564 l 9.472,2.675 22.626,28.875 h 7.856 c 0.984,0 1.358,-1.319 0.527,-1.846 l -3.571,-2.282 0.882,-6.058 -5.725,-1.271 -4.393,-7.669 -4.347,-17.265 -0.18,-7.276 c -0.043,-1.746 2.325,-2.318 3.084,-0.745 l 3.863,8.019 8.717,8.719 -1.779,6.508 5.913,1.183 7.575,7.9 -0.551,8.623 c -0.093,1.457 1.735,2.18 2.664,1.054 l 7.631,-9.255 c 1.381,-2.486 1.532,-5.473 0.406,-8.086 z M 114.567,359.021 c -12.647,0 -22.901,-10.253 -22.901,-22.901 0,-12.648 10.254,-22.901 22.901,-22.901 12.648,0 22.9,10.253 22.9,22.901 0,12.649 -10.252,22.901 -22.9,22.901 z m 70.163,13.528 c -12.647,0 -22.901,-10.253 -22.901,-22.9 0,-12.647 10.254,-22.901 22.901,-22.901 12.648,0 22.9,10.254 22.9,22.901 0.001,12.647 -10.252,22.9 -22.9,22.9 z m 69.81,0 c -12.647,0 -22.901,-10.253 -22.901,-22.901 0,-12.648 10.254,-22.901 22.901,-22.901 12.649,0 22.901,10.254 22.901,22.901 0,12.648 -10.252,22.901 -22.901,22.901 z m 69.651,-13.528 c -12.647,0 -22.9,-10.253 -22.9,-22.9 0,-12.648 10.254,-22.901 22.9,-22.901 12.648,0 22.901,10.253 22.901,22.901 0,12.648 -10.253,22.9 -22.901,22.9 z"
         id="path4564"
         inkscape:connector-curvature="0"
         style="fill:#ffffff;fill-opacity:1" /><path
         d="m 192.782,276 h 54.045 l 5.845,-16.425 c 19.385,-53.731 19.385,-113.278 0,-167.008 L 246.827,76 h -54.045 l 2.32,6.684 c 21.659,60.031 21.659,126.503 0,186.533 z"
         id="path4566"
         inkscape:connector-curvature="0"
         style="fill:#ffffff;fill-opacity:1" /><path
         d="m 277.429,276 h 38.19 c 6.823,0 12.005,-4.157 14.567,-10.481 l 4.699,-11.606 c 20.44,-49.905 20.44,-105.738 0,-155.643 L 330.202,86.612 C 327.629,80.311 322.459,76 315.653,76 h -38.224 l 2.32,6.684 c 21.66,60.03 21.66,126.503 0,186.533 z"
         id="path4568"
         inkscape:connector-curvature="0"
         style="fill:#ffffff;fill-opacity:1" /><path
         d="m 107.786,264.614 c -2.201,5.433 1.797,11.386 7.659,11.386 h 46.735 l 5.846,-16.426 c 19.385,-53.73 19.385,-113.277 0,-167.008 L 162.18,76 h -46.699 c -5.872,0 -9.871,6.143 -7.65,11.579 l 4.287,10.591 c 20.44,49.905 20.44,105.79 0,155.696 z"
         id="path4570"
         inkscape:connector-curvature="0"
         style="fill:#ffffff;fill-opacity:1" /></g></g></svg>